<?xml version="1.0" standalone="no"?>
<svg xmlns:xlink="http://www.w3.org/1999/xlink" id="wave" style="transform:rotate(180deg); transition: 0.3s" viewBox="0 0 1440 120" version="1.1" xmlns="http://www.w3.org/2000/svg"><defs><linearGradient id="sw-gradient-0" x1="0" x2="0" y1="1" y2="0"><stop stop-color="rgba(230, 242, 230, 1)" offset="0%"/><stop stop-color="rgba(230, 242, 230, 1)" offset="100%"/></linearGradient></defs><path style="transform:translate(0, 0px); opacity:1" fill="url(#sw-gradient-0)" d="M0,72L40,66C80,60,160,48,240,52C320,56,400,76,480,84C560,92,640,88,720,82C800,76,880,68,960,54C1040,40,1120,20,1200,24C1280,28,1360,56,1440,58C1520,60,1600,36,1680,38C1760,40,1840,68,1920,72C2000,76,2080,56,2160,50C2240,44,2320,52,2400,64C2480,76,2560,92,2640,90C2720,88,2800,68,2880,54C2960,40,3040,32,3120,36C3200,40,3280,56,3360,70C3440,84,3520,96,3600,102C3680,108,3760,108,3840,100C3920,92,4000,76,4080,72C4160,68,4240,76,4320,76C4400,76,4480,68,4560,72C4640,76,4720,92,4800,88C4880,84,4960,60,5040,46C5120,32,5200,28,5280,30C5360,32,5440,40,5520,52C5600,64,5680,80,5720,88L5760,96L5760,120L5720,120C5680,120,5600,120,5520,120C5440,120,5360,120,5280,120C5200,120,5120,120,5040,120C4960,120,4880,120,4800,120C4720,120,4640,120,4560,120C4480,120,4400,120,4320,120C4240,120,4160,120,4080,120C4000,120,3920,120,3840,120C3760,120,3680,120,3600,120C3520,120,3440,120,3360,120C3280,120,3200,120,3120,120C3040,120,2960,120,2880,120C2800,120,2720,120,2640,120C2560,120,2480,120,2400,120C2320,120,2240,120,2160,120C2080,120,2000,120,1920,120C1840,120,1760,120,1680,120C1600,120,1520,120,1440,120C1360,120,1280,120,1200,120C1120,120,1040,120,960,120C880,120,800,120,720,120C640,120,560,120,480,120C400,120,320,120,240,120C160,120,80,120,40,120L0,120Z"/></svg>